<svg width="12" height="14" viewBox="0 0 12 14" version="1.1" xmlns="http://www.w3.org/2000/svg" xmlns:xlink="http://www.w3.org/1999/xlink" xmlns:figma="http://www.figma.com/figma/ns">
    <title>Group-8</title>
    <desc>Created using Figma</desc>
    <g id="Canvas" transform="translate(450 -898)" figma:type="canvas">
        <g id="Group-8" figma:type="frame">
            <g id="Rectangle-9" figma:type="vector">
                <use xlink:href="#path0_stroke" transform="translate(-447 899)" fill="#C4C4C4"/>
            </g>
            <g id="Rectangle-9" figma:type="frame">
                <g id="Vector" figma:type="vector">
                    <use xlink:href="#path1_fill" transform="translate(-449 901)" fill="#FFFFFF"/>
                    <use xlink:href="#path2_stroke" transform="translate(-449 901)" fill="#FFFFFF"/>
                </g>
                <g id="Vector" figma:type="vector">
                    <use xlink:href="#path1_fill" transform="translate(-449 901)" fill="#FFFFFF"/>
                    <mask id="mask0_outline_ins">
                        <use xlink:href="#path1_fill" fill="white" transform="translate(-449 901)"/>
                    </mask>
                    <g mask="url(#mask0_outline_ins)">
                        <use xlink:href="#path3_stroke_2x" transform="translate(-449 901)" fill="#C4C4C4"/>
                    </g>
                </g>
            </g>
        </g>
    </g>
    <defs>
        <path id="path0_stroke" d="M 2 0.75L 6 0.75L 6 -0.75L 2 -0.75L 2 0.75ZM 6 0.75C 6.69036 0.75 7.25 1.30964 7.25 2L 8.75 2C 8.75 0.481217 7.51878 -0.75 6 -0.75L 6 0.75ZM 7.25 2L 7.25 8L 8.75 8L 8.75 2L 7.25 2ZM 7.25 8C 7.25 8.69036 6.69036 9.25 6 9.25L 6 10.75C 7.51878 10.75 8.75 9.51878 8.75 8L 7.25 8ZM 6 9.25L 2 9.25L 2 10.75L 6 10.75L 6 9.25ZM 2 9.25C 1.30964 9.25 0.75 8.69036 0.75 8L -0.75 8C -0.75 9.51878 0.481217 10.75 2 10.75L 2 9.25ZM 0.75 8L 0.75 2L -0.75 2L -0.75 8L 0.75 8ZM 0.75 2C 0.75 1.30964 1.30964 0.75 2 0.75L 2 -0.75C 0.481217 -0.75 -0.75 0.481217 -0.75 2L 0.75 2Z"/>
        <path id="path1_fill" d="M 6 0L 2 0C 0.89543 0 0 0.89543 0 2L 0 8C 0 9.10457 0.89543 10 2 10L 6 10C 7.10457 10 8 9.10457 8 8L 8 2C 8 0.89543 7.10457 0 6 0Z"/>
        <path id="path2_stroke" d="M 2 1L 6 1L 6 -1L 2 -1L 2 1ZM 6 1C 6.55228 1 7 1.44772 7 2L 9 2C 9 0.343146 7.65685 -1 6 -1L 6 1ZM 7 2L 7 8L 9 8L 9 2L 7 2ZM 7 8C 7 8.55228 6.55228 9 6 9L 6 11C 7.65685 11 9 9.65685 9 8L 7 8ZM 6 9L 2 9L 2 11L 6 11L 6 9ZM 2 9C 1.44772 9 1 8.55229 1 8L -1 8C -1 9.65685 0.343146 11 2 11L 2 9ZM 1 8L 1 2L -1 2L -1 8L 1 8ZM 1 2C 1 1.44772 1.44772 1 2 1L 2 -1C 0.343146 -1 -1 0.343146 -1 2L 1 2Z"/>
        <path id="path3_stroke_2x" d="M 2 1.5L 6 1.5L 6 -1.5L 2 -1.5L 2 1.5ZM 6 1.5C 6.27614 1.5 6.5 1.72386 6.5 2L 9.5 2C 9.5 0.0670033 7.933 -1.5 6 -1.5L 6 1.5ZM 6.5 2L 6.5 8L 9.5 8L 9.5 2L 6.5 2ZM 6.5 8C 6.5 8.27614 6.27614 8.5 6 8.5L 6 11.5C 7.933 11.5 9.5 9.933 9.5 8L 6.5 8ZM 6 8.5L 2 8.5L 2 11.5L 6 11.5L 6 8.5ZM 2 8.5C 1.72386 8.5 1.5 8.27614 1.5 8L -1.5 8C -1.5 9.933 0.0670033 11.5 2 11.5L 2 8.5ZM 1.5 8L 1.5 2L -1.5 2L -1.5 8L 1.5 8ZM 1.5 2C 1.5 1.72386 1.72386 1.5 2 1.5L 2 -1.5C 0.0670033 -1.5 -1.5 0.0670033 -1.5 2L 1.5 2Z"/>
    </defs>
</svg>
