<svg width="18" height="15" viewBox="0 0 18 15" version="1.1" xmlns="http://www.w3.org/2000/svg" xmlns:xlink="http://www.w3.org/1999/xlink" xmlns:figma="http://www.figma.com/figma/ns">
    <title>Group</title>
    <desc>Created using Figma</desc>
    <g id="Canvas" transform="translate(402 -897)" figma:type="canvas">
        <g id="Group" figma:type="frame">
            <g id="Group-9" figma:type="frame">
                <g id="big" figma:type="vector">
                    <use xlink:href="#path0_stroke" transform="translate(-401 898)" fill="#C4C4C4"/>
                </g>
                <g id="small" figma:type="frame">
                    <g id="Vector" figma:type="vector">
                        <use xlink:href="#path1_fill" transform="translate(-394.363 899.68)" fill="#FFFFFF"/>
                        <use xlink:href="#path2_stroke" transform="translate(-394.363 899.68)" fill="#FFFFFF"/>
                    </g>
                    <g id="Vector" figma:type="vector">
                        <use xlink:href="#path3_stroke" transform="translate(-394.363 899.68)" fill="#C4C4C4"/>
                    </g>
                </g>
            </g>
        </g>
    </g>
    <defs>
        <path id="path0_stroke" d="M 8.84869 12L 8.84869 12.75C 9.24014 12.75 9.56575 12.4489 9.59639 12.0587L 8.84869 12ZM 3.61932e-23 12L -0.749998 11.9982C -0.750471 12.1974 -0.671663 12.3887 -0.53096 12.5297C -0.390257 12.6707 -0.199221 12.75 3.61932e-23 12.75L 3.61932e-23 12ZM 8.0308 8.35476L 7.39933 8.75942L 8.0308 8.35476ZM 8.84869 11.25L 3.61932e-23 11.25L 3.61932e-23 12.75L 8.84869 12.75L 8.84869 11.25ZM 3.61932e-23 12C 0.749998 12.0018 0.749998 12.0019 0.749997 12.0021C 0.749997 12.0021 0.749997 12.0022 0.749997 12.0023C 0.749997 12.0022 0.749995 12.0026 0.749995 12.0026C 0.749995 12.0026 0.749995 12.0027 0.749996 12.0026C 0.749999 12.0019 0.750001 12.0015 0.750013 12.0002C 0.750043 11.9968 0.750084 11.993 0.750189 11.9863C 0.75042 11.9714 0.750803 11.9522 0.751659 11.9241C 0.753447 11.8643 0.756651 11.7842 0.763487 11.6773C 0.777463 11.4561 0.803052 11.1676 0.856994 10.8248C 0.965675 10.124 1.14734 9.36058 1.54379 8.75882L 0.280079 7.95071C -0.230108 8.76674 -0.504414 9.82594 -0.625039 10.5933C -0.685751 10.9846 -0.71815 11.3415 -0.7335 11.5823C -0.741326 11.7064 -0.74562 11.8114 -0.747663 11.879C -0.748722 11.9145 -0.749338 11.9445 -0.749628 11.9629C -0.749783 11.973 -0.749882 11.9818 -0.749928 11.9869C -0.749953 11.9899 -0.749973 11.9927 -0.749981 11.9942C -0.749986 11.9951 -0.749991 11.9961 -0.749993 11.9966C -0.749994 11.997 -0.749995 11.9974 -0.749996 11.9975C -0.749996 11.9977 -0.749997 11.9978 -0.749997 11.9979C -0.749997 11.9981 -0.749998 11.9982 3.61932e-23 12ZM 1.54379 8.75882C 2.26914 7.62452 3.72686 7.20671 4.42435 7.20671L 4.42435 5.70671C 3.40063 5.70671 1.368 6.24943 0.280079 7.95071L 1.54379 8.75882ZM 4.42435 7.20671C 5.34511 7.20671 6.60308 7.51687 7.39933 8.75942L 8.66227 7.95011C 7.49137 6.12293 5.6412 5.70671 4.42435 5.70671L 4.42435 7.20671ZM 7.39933 8.75942C 7.83043 9.41102 7.98747 10.158 8.06336 10.8374C 8.10132 11.167 8.10947 11.4362 8.10921 11.6457C 8.10922 11.7458 8.107 11.8184 8.10458 11.8741C 8.10349 11.8998 8.10257 11.9163 8.10173 11.9299C 8.10138 11.9356 8.10119 11.9384 8.10098 11.9414C 8.10091 11.9424 8.10084 11.9433 8.10087 11.9428C 8.10087 11.9428 8.1009 11.9424 8.10091 11.9424C 8.10089 11.9426 8.10095 11.9419 8.10094 11.942C 8.10095 11.9419 8.10096 11.9417 8.10097 11.9417C 8.10098 11.9415 8.10099 11.9413 8.84869 12C 9.59639 12.0587 9.59641 12.0585 9.59642 12.0583C 9.59643 12.0582 9.59645 12.058 9.59646 12.0578C 9.59647 12.0577 9.59651 12.0572 9.59654 12.0568C 9.59658 12.0563 9.59667 12.0551 9.59674 12.0541C 9.59686 12.0526 9.59708 12.0495 9.5973 12.0464C 9.59766 12.0413 9.59828 12.032 9.5989 12.0219C 9.60001 12.0039 9.60168 11.9736 9.6032 11.9385C 9.606 11.8729 9.60904 11.7686 9.60921 11.6468C 9.60928 11.4127 9.59738 11.0584 9.55382 10.6685C 9.46665 9.909 9.21474 8.83338 8.66227 7.95011L 7.39933 8.75942ZM 4.42435 3.72965C 3.62557 3.72965 2.96217 3.07145 2.96217 2.23983L 1.46217 2.23983C 1.46217 3.88225 2.77963 5.22965 4.42435 5.22965L 4.42435 3.72965ZM 2.96217 2.23983C 2.96217 1.40821 3.62557 0.75 4.42435 0.75L 4.42435 -0.75C 2.77963 -0.75 1.46217 0.597403 1.46217 2.23983L 2.96217 2.23983ZM 4.42435 0.75C 5.22313 0.75 5.88652 1.40821 5.88652 2.23983L 7.38652 2.23983C 7.38652 0.597403 6.06907 -0.75 4.42435 -0.75L 4.42435 0.75ZM 5.88652 2.23983C 5.88652 3.07145 5.22313 3.72965 4.42435 3.72965L 4.42435 5.22965C 6.06907 5.22965 7.38652 3.88225 7.38652 2.23983L 5.88652 2.23983Z"/>
        <path id="path1_fill" d="M 3.8713 3.35974C 2.95499 3.35974 2.21217 2.60764 2.21217 1.67987C 2.21217 0.752104 2.95499 1.70502e-08 3.8713 1.70502e-08C 4.78762 1.70502e-08 5.53043 0.752104 5.53043 1.67987C 5.53043 2.60764 4.78762 3.35974 3.8713 3.35974ZM 7.73341 10.3201L 2.18905e-07 10.3201C 2.18905e-07 10.3201 0.00462759 8.37343 0.796994 7.13434C 1.58936 5.89525 3.11457 5.47551 3.86671 5.47551C 4.8008 5.47551 6.159 5.79292 7.0186 7.13434C 7.87821 8.47575 7.73341 10.3201 7.73341 10.3201Z"/>
        <path id="path2_stroke" d="M 7.73341 10.3201L 7.73341 12.3201C 8.77727 12.3201 9.64558 11.5173 9.72728 10.4767L 7.73341 10.3201ZM 2.18905e-07 10.3201L -1.99999 10.3154C -2.00126 10.8466 -1.7911 11.3566 -1.41589 11.7327C -1.04068 12.1088 -0.531256 12.3201 2.18905e-07 12.3201L 2.18905e-07 10.3201ZM 7.0186 7.13434L 8.70252 6.05525L 7.0186 7.13434ZM 3.8713 1.35974C 4.08291 1.35974 4.21217 1.52656 4.21217 1.67987L 0.212173 1.67987C 0.212173 3.68871 1.82707 5.35974 3.8713 5.35974L 3.8713 1.35974ZM 4.21217 1.67987C 4.21217 1.83318 4.08291 2 3.8713 2L 3.8713 -2C 1.82707 -2 0.212173 -0.328969 0.212173 1.67987L 4.21217 1.67987ZM 3.8713 2C 3.65969 2 3.53043 1.83318 3.53043 1.67987L 7.53043 1.67987C 7.53043 -0.328968 5.91554 -2 3.8713 -2L 3.8713 2ZM 3.53043 1.67987C 3.53043 1.52657 3.65969 1.35974 3.8713 1.35974L 3.8713 5.35974C 5.91554 5.35974 7.53043 3.68871 7.53043 1.67987L 3.53043 1.67987ZM 7.73341 8.32013L 2.18905e-07 8.32013L 2.18905e-07 12.3201L 7.73341 12.3201L 7.73341 8.32013ZM 2.18905e-07 10.3201C 1.99999 10.3249 1.99999 10.3253 1.99999 10.3257C 1.99999 10.3258 1.99999 10.3261 1.99999 10.3264C 1.99999 10.3262 1.99998 10.3281 1.99999 10.3277C 1.99999 10.3274 1.99997 10.3305 1.99998 10.3299C 1.99998 10.3297 1.99996 10.3325 1.99996 10.3322C 1.99995 10.3337 1.99995 10.3319 2 10.3292C 2.00015 10.3193 2.00028 10.3122 2.00084 10.2942C 2.00218 10.249 2.004 10.2014 2.00909 10.1233C 2.02007 9.94758 2.03633 9.7566 2.0774 9.50052C 2.16265 8.9547 2.30842 8.48316 2.48194 8.21182L -0.887951 6.05686C -1.43578 6.9621 -1.75856 8.15292 -1.87468 8.88326C -1.93381 9.26875 -1.96823 9.64189 -1.98288 9.86989C -1.99061 9.9937 -1.99533 10.1079 -1.99735 10.1739C -1.99846 10.2115 -1.9992 10.2475 -1.99951 10.2667C -1.99969 10.2786 -1.99983 10.2909 -1.99988 10.2968C -1.99992 10.3009 -1.99995 10.3055 -1.99996 10.3076C -1.99997 10.3091 -1.99998 10.3111 -1.99998 10.3118C -1.99999 10.3125 -1.99999 10.3134 -1.99999 10.3137C -1.99999 10.314 -1.99999 10.3144 -1.99999 10.3146C -1.99999 10.315 -1.99999 10.3154 2.18905e-07 10.3201ZM 2.48194 8.21182C 2.61734 8.00007 2.85001 7.80781 3.17124 7.6625C 3.50877 7.50981 3.79829 7.47551 3.86671 7.47551L 3.86671 3.47551C 2.6796 3.47551 0.387843 4.06179 -0.887951 6.05686L 2.48194 8.21182ZM 3.86671 7.47551C 4.40601 7.47551 4.9746 7.65151 5.33469 8.21342L 8.70252 6.05525C 7.34339 3.93433 5.19559 3.47551 3.86671 3.47551L 3.86671 7.47551ZM 5.33469 8.21342C 5.60265 8.57523 5.65486 8.9335 5.71108 9.45546C 5.73924 9.68951 5.74299 9.84853 5.74261 10.0095C 5.74276 10.0775 5.74156 10.1125 5.7398 10.1524C 5.73923 10.1664 5.73909 10.1685 5.7386 10.1764C 5.73854 10.1775 5.73866 10.1755 5.73871 10.1748C 5.73863 10.1758 5.73906 10.1699 5.73902 10.1704C 5.73895 10.1714 5.73929 10.1669 5.73926 10.1673C 5.73921 10.1679 5.73942 10.1653 5.73939 10.1655C 5.73942 10.1652 5.73946 10.1647 5.73947 10.1646C 5.73951 10.1641 5.73955 10.1636 7.73341 10.3201C 9.72728 10.4767 9.72732 10.4761 9.72736 10.4756C 9.72737 10.4754 9.72741 10.4749 9.72744 10.4745C 9.72747 10.4742 9.72756 10.473 9.72762 10.4723C 9.72769 10.4713 9.72787 10.469 9.728 10.4671C 9.72817 10.4649 9.72857 10.4593 9.7289 10.4548C 9.72934 10.4484 9.73027 10.4345 9.73106 10.4218C 9.73227 10.402 9.73439 10.3631 9.73611 10.3241C 9.73891 10.2579 9.7423 10.1384 9.7426 10.0125C 9.7425 9.78571 9.72873 9.39979 9.68564 9.00507C 9.59936 8.26948 9.29416 7.03486 8.70252 6.05525L 5.33469 8.21342Z"/>
        <path id="path3_stroke" d="M 7.73341 10.3201L 7.73341 11.0701C 8.12486 11.0701 8.45047 10.7691 8.48111 10.3788L 7.73341 10.3201ZM 2.18905e-07 10.3201L -0.749998 10.3183C -0.750471 10.5176 -0.671663 10.7088 -0.53096 10.8498C -0.390257 10.9909 -0.199221 11.0701 2.18905e-07 11.0701L 2.18905e-07 10.3201ZM 7.0186 7.13434L 7.65007 6.72968L 7.0186 7.13434ZM 3.8713 2.60974C 3.37796 2.60974 2.96217 2.20223 2.96217 1.67987L 1.46217 1.67987C 1.46217 3.01304 2.53202 4.10974 3.8713 4.10974L 3.8713 2.60974ZM 2.96217 1.67987C 2.96217 1.15751 3.37796 0.75 3.8713 0.75L 3.8713 -0.75C 2.53202 -0.75 1.46217 0.346702 1.46217 1.67987L 2.96217 1.67987ZM 3.8713 0.75C 4.36465 0.75 4.78043 1.15751 4.78043 1.67987L 6.28043 1.67987C 6.28043 0.346702 5.21059 -0.75 3.8713 -0.75L 3.8713 0.75ZM 4.78043 1.67987C 4.78043 2.20223 4.36465 2.60974 3.8713 2.60974L 3.8713 4.10974C 5.21059 4.10974 6.28043 3.01304 6.28043 1.67987L 4.78043 1.67987ZM 7.73341 9.57013L 2.18905e-07 9.57013L 2.18905e-07 11.0701L 7.73341 11.0701L 7.73341 9.57013ZM 2.18905e-07 10.3201C 0.749998 10.3219 0.749998 10.3221 0.749997 10.3222C 0.749997 10.3222 0.749997 10.3223 0.749997 10.3224C 0.749997 10.3224 0.749995 10.3228 0.749996 10.3228C 0.749995 10.3228 0.749994 10.323 0.749995 10.3229C 0.749998 10.3224 0.749999 10.3222 0.750008 10.3211C 0.750033 10.3183 0.750065 10.3153 0.750154 10.3097C 0.750352 10.2969 0.750672 10.2808 0.751408 10.2566C 0.752954 10.2049 0.755685 10.1365 0.761597 10.0441C 0.773725 9.85205 0.795659 9.60414 0.842376 9.30763C 0.936607 8.69936 1.08953 8.0508 1.42885 7.53839L 0.16514 6.73028C -0.287912 7.45696 -0.533482 8.4013 -0.639657 9.07616C -0.693143 9.4212 -0.721888 9.73742 -0.735389 9.94908C -0.742292 10.0586 -0.746113 10.152 -0.747914 10.2115C -0.748853 10.243 -0.749406 10.2699 -0.749663 10.2863C -0.749801 10.2952 -0.749892 10.3033 -0.749933 10.3079C -0.749956 10.3106 -0.749974 10.3132 -0.749982 10.3145C -0.749986 10.3154 -0.749991 10.3164 -0.749993 10.3168C -0.749994 10.3171 -0.749995 10.3175 -0.749996 10.3177C -0.749996 10.3178 -0.749997 10.318 -0.749997 10.318C -0.749997 10.3182 -0.749998 10.3183 2.18905e-07 10.3201ZM 1.42885 7.53839C 2.03993 6.58279 3.27769 6.22551 3.86671 6.22551L 3.86671 4.72551C 2.95146 4.72551 1.13879 5.2077 0.16514 6.73028L 1.42885 7.53839ZM 3.86671 6.22551C 4.65276 6.22551 5.71485 6.48989 6.38714 7.53899L 7.65007 6.72968C 6.60315 5.09595 4.94885 4.72551 3.86671 4.72551L 3.86671 6.22551ZM 6.38714 7.53899C 6.75625 8.09386 6.88751 8.726 6.95313 9.31471C 6.98595 9.59897 6.99284 9.82889 6.9926 10.0104C 6.99262 10.0965 6.99073 10.158 6.98865 10.2061C 6.98772 10.2279 6.98696 10.2415 6.98624 10.2531C 6.98595 10.2578 6.98581 10.2598 6.98564 10.2623C 6.98559 10.263 6.98555 10.2635 6.98558 10.2632C 6.98557 10.2632 6.98562 10.2626 6.98562 10.2626C 6.98561 10.2628 6.98566 10.262 6.98566 10.2621C 6.98567 10.262 6.98568 10.2618 6.98568 10.2618C 6.9857 10.2616 6.98571 10.2614 7.73341 10.3201C 8.48111 10.3788 8.48113 10.3786 8.48114 10.3784C 8.48115 10.3784 8.48116 10.3781 8.48118 10.378C 8.48119 10.3778 8.48123 10.3773 8.48125 10.377C 8.48129 10.3765 8.48138 10.3754 8.48145 10.3744C 8.48155 10.373 8.48176 10.3701 8.48196 10.3673C 8.48228 10.3627 8.48285 10.3542 8.48341 10.3451C 8.4844 10.329 8.48591 10.3017 8.48726 10.2705C 8.48974 10.2125 8.49245 10.1193 8.4926 10.0115C 8.49266 9.80534 8.48201 9.49033 8.44359 9.14581C 8.3667 8.47699 8.14056 7.51623 7.65007 6.72968L 6.38714 7.53899Z"/>
    </defs>
</svg>
